<?xml version="1.0" encoding="UTF-8" standalone="no"?>
<svg
   width="300mm"
   height="100mm"
   viewBox="0 0 300 100"
   version="1.1"
   id="svg8"
   inkscape:version="1.2.2 (b0a8486541, 2022-12-01)"
   sodipodi:docname="squiidtext.svg"
   inkscape:export-filename="squiidtext.png"
   inkscape:export-xdpi="95.986053"
   inkscape:export-ydpi="95.986053"
   xmlns:inkscape="http://www.inkscape.org/namespaces/inkscape"
   xmlns:sodipodi="http://sodipodi.sourceforge.net/DTD/sodipodi-0.dtd"
   xmlns:xlink="http://www.w3.org/1999/xlink"
   xmlns="http://www.w3.org/2000/svg"
   xmlns:svg="http://www.w3.org/2000/svg"
   xmlns:rdf="http://www.w3.org/1999/02/22-rdf-syntax-ns#"
   xmlns:cc="http://creativecommons.org/ns#"
   xmlns:dc="http://purl.org/dc/elements/1.1/">
  <defs
     id="defs2">
    <linearGradient
       inkscape:collect="always"
       id="linearGradient899">
      <stop
         style="stop-color:#2e303e;stop-opacity:1;"
         offset="0"
         id="stop895" />
      <stop
         style="stop-color:#2e303e;stop-opacity:0;"
         offset="1"
         id="stop897" />
    </linearGradient>
    <filter
       inkscape:collect="always"
       style="color-interpolation-filters:sRGB"
       id="filter931"
       x="-0.0035921752"
       width="1.0072461"
       y="-0.011536267"
       height="1.0230725">
      <feGaussianBlur
         inkscape:collect="always"
         stdDeviation="5.5915189e-05"
         id="feGaussianBlur933" />
    </filter>
    <linearGradient
       inkscape:collect="always"
       xlink:href="#linearGradient899"
       id="linearGradient901"
       x1="63.005136"
       y1="49.999997"
       x2="237.05131"
       y2="49.999997"
       gradientUnits="userSpaceOnUse" />
  </defs>
  <sodipodi:namedview
     id="base"
     pagecolor="#1e2129"
     bordercolor="#666666"
     borderopacity="1.0"
     inkscape:pageopacity="0"
     inkscape:pageshadow="2"
     inkscape:zoom="1.979899"
     inkscape:cx="351.02801"
     inkscape:cy="205.3135"
     inkscape:document-units="mm"
     inkscape:current-layer="layer1"
     inkscape:document-rotation="0"
     showgrid="false"
     inkscape:window-width="1920"
     inkscape:window-height="1200"
     inkscape:window-x="0"
     inkscape:window-y="0"
     inkscape:window-maximized="1"
     inkscape:snap-bbox="true"
     inkscape:showpageshadow="2"
     inkscape:pagecheckerboard="0"
     inkscape:deskcolor="#1e2129" />
  <metadata
     id="metadata5">
    <rdf:RDF>
      <cc:Work
         rdf:about="">
        <dc:format>image/svg+xml</dc:format>
        <dc:type
           rdf:resource="http://purl.org/dc/dcmitype/StillImage" />
      </cc:Work>
    </rdf:RDF>
  </metadata>
  <g
     inkscape:label="Layer 1"
     inkscape:groupmode="layer"
     id="layer1">
    <path
       style="fill:none;stroke:#dc322f;stroke-width:4.91964;stroke-linecap:round;stroke-linejoin:miter;stroke-miterlimit:4;stroke-dasharray:none;stroke-opacity:1"
       d="M 42.712699,11.537843 13.496729,89.974061"
       id="path14" />
    <path
       style="fill:#ffffff;fill-opacity:1;stroke:#268bd2;stroke-width:4.92;stroke-linecap:round;stroke-linejoin:miter;stroke-miterlimit:4;stroke-dasharray:none;stroke-opacity:1"
       d="M 282.64785,11.537843 253.43188,89.974061"
       id="path14-3" />
    <g
       aria-label="Squiid"
       id="text12"
       style="font-weight:bold;font-size:63.5px;line-height:1.25;font-family:Comfortaa;-inkscape-font-specification:'Comfortaa, Bold';opacity:0.98;fill:#ffffff;stroke:#2e303e;stroke-width:1.5;paint-order:stroke fill markers;filter:url(#filter931);stroke-opacity:0.99635035;stroke-dasharray:none">
      <path
         d="m 63.903099,76.187696 q -4.064,0 -7.747,-1.27 -3.683,-1.27 -6.4135,-3.556 -2.7305,-2.286 -4.0005,-5.2705 -0.635,-1.3335 0,-2.4765 0.6985,-1.143 2.286,-1.4605 1.143,-0.254 2.2225,0.381 1.143,0.5715 1.7145,1.778 0.762,1.5875 2.4765,2.921 1.778,1.3335 4.2545,2.159 2.4765,0.8255 5.207,0.8255 3.048,0 5.588,-0.9525 2.6035,-0.9525 4.191,-2.7305 1.5875,-1.8415 1.5875,-4.5085 0,-3.3655 -2.667,-6.0325 -2.6035,-2.667 -8.636,-3.302 -7.874,-0.762 -12.3825,-4.6355 -4.5085,-3.8735 -4.5085,-9.5885 0,-4.191 2.3495,-7.112 2.3495,-2.921 6.35,-4.445 4.064,-1.524 9.017,-1.524 3.8735,0 6.731,1.0795 2.921,1.0795 5.08,2.9845 2.159,1.905 3.7465,4.5085 0.889,1.397 0.6985,2.667 -0.127,1.2065 -1.2065,1.905 -1.2065,0.762 -2.6035,0.3175 -1.397,-0.4445 -2.0955,-1.651 -1.016,-1.8415 -2.4765,-3.1115 -1.4605,-1.27 -3.429,-1.9685 -1.9685,-0.762 -4.6355,-0.762 -4.699,-0.0635 -7.874,1.778 -3.175,1.778 -3.175,5.5245 0,1.905 0.9525,3.683 1.016,1.7145 3.6195,2.9845 2.667,1.27 7.62,1.778 7.5565,0.762 11.7475,4.6355 4.2545,3.81 4.2545,10.0965 0,3.6195 -1.524,6.2865 -1.4605,2.667 -4.0005,4.5085 -2.4765,1.778 -5.715,2.667 -3.175,0.889 -6.604,0.889 z"
         id="path1217"
         style="stroke:#2e303e;stroke-opacity:0.99635035;stroke-width:1.5;stroke-dasharray:none" />
      <path
         d="m 121.24358,90.411696 q -1.4605,0 -2.413,-0.9525 -0.889,-0.889 -0.889,-2.286 v -17.145 q -2.159,2.667 -5.334,4.2545 -3.175,1.524 -6.9215,1.524 -4.6355,0 -8.3185,-2.286 -3.683,-2.3495 -5.842,-6.2865 -2.0955,-4.0005 -2.0955,-9.017 0,-5.0165 2.286,-9.017 2.3495,-4.0005 6.2865,-6.2865 4.0005,-2.3495 8.9535,-2.3495 4.953,0 8.89,2.3495 3.937,2.286 6.223,6.2865 2.3495,4.0005 2.3495,9.017 v 28.956 q 0,1.397 -0.889,2.286 -0.889,0.9525 -2.286,0.9525 z m -14.2875,-20.32 q 3.2385,0 5.7785,-1.524 2.54,-1.5875 4.0005,-4.2545 1.4605,-2.7305 1.4605,-6.096 0,-3.429 -1.4605,-6.096 -1.4605,-2.7305 -4.0005,-4.2545 -2.54,-1.5875 -5.7785,-1.5875 -3.175,0 -5.7785,1.5875 -2.54,1.524 -4.064,4.2545 -1.4605,2.667 -1.4605,6.096 0,3.3655 1.4605,6.096 1.524,2.667 4.064,4.2545 2.6035,1.524 5.7785,1.524 z"
         id="path1219"
         style="stroke:#2e303e;stroke-opacity:0.99635035;stroke-width:1.5;stroke-dasharray:none" />
      <path
         d="m 150.45352,75.870196 q -4.3815,0 -7.874,-1.8415 -3.429,-1.905 -5.461,-5.5245 -1.9685,-3.6195 -1.9685,-8.89 v -15.621 q 0,-1.397 0.889,-2.286 0.9525,-0.9525 2.3495,-0.9525 1.397,0 2.286,0.9525 0.9525,0.889 0.9525,2.286 v 15.621 q 0,3.556 1.3335,5.9055 1.3335,2.286 3.6195,3.429 2.286,1.0795 5.1435,1.0795 2.7305,0 4.826,-1.0795 2.159,-1.0795 3.429,-2.921 1.27,-1.8415 1.27,-4.1275 h 4.0005 q 0,3.937 -1.9685,7.112 -1.905,3.175 -5.2705,5.0165 -3.302,1.8415 -7.5565,1.8415 z m 14.0335,-0.3175 q -1.397,0 -2.3495,-0.889 -0.889,-0.9525 -0.889,-2.3495 v -28.321 q 0,-1.4605 0.889,-2.3495 0.9525,-0.889 2.3495,-0.889 1.4605,0 2.3495,0.889 0.889,0.889 0.889,2.3495 v 28.321 q 0,1.397 -0.889,2.3495 -0.889,0.889 -2.3495,0.889 z"
         id="path1221"
         style="stroke:#2e303e;stroke-opacity:0.99635035;stroke-width:1.5;stroke-dasharray:none" />
      <path
         d="m 183.02898,75.552696 q -1.397,0 -2.3495,-0.889 -0.889,-0.9525 -0.889,-2.3495 v -28.2575 q 0,-1.4605 0.889,-2.3495 0.9525,-0.889 2.3495,-0.889 1.4605,0 2.3495,0.889 0.889,0.889 0.889,2.3495 v 28.2575 q 0,1.397 -0.889,2.3495 -0.889,0.889 -2.3495,0.889 z m 0,-40.386 q -1.7145,0 -2.9845,-1.2065 -1.2065,-1.27 -1.2065,-2.9845 0,-1.7145 1.2065,-2.921 1.27,-1.27 2.9845,-1.27 1.7145,0 2.921,1.27 1.27,1.2065 1.27,2.921 0,1.7145 -1.27,2.9845 -1.2065,1.2065 -2.921,1.2065 z"
         style="fill:#dc322f;stroke:#2e303e;stroke-opacity:0.99635035;stroke-width:1.5;stroke-dasharray:none"
         id="path1223" />
      <path
         d="m 202.20598,75.552696 q -1.397,0 -2.3495,-0.889 -0.889,-0.9525 -0.889,-2.3495 v -28.2575 q 0,-1.4605 0.889,-2.3495 0.9525,-0.889 2.3495,-0.889 1.4605,0 2.3495,0.889 0.889,0.889 0.889,2.3495 v 28.2575 q 0,1.397 -0.889,2.3495 -0.889,0.889 -2.3495,0.889 z m 0,-40.386 q -1.7145,0 -2.9845,-1.2065 -1.2065,-1.27 -1.2065,-2.9845 0,-1.7145 1.2065,-2.921 1.27,-1.27 2.9845,-1.27 1.7145,0 2.921,1.27 1.27,1.2065 1.27,2.921 0,1.7145 -1.27,2.9845 -1.2065,1.2065 -2.921,1.2065 z"
         style="fill:#268bd2;stroke:#2e303e;stroke-opacity:0.99635035;stroke-width:1.5;stroke-dasharray:none"
         id="path1225" />
      <path
         d="m 233.25748,75.806696 q -4.953,0 -8.9535,-2.286 -3.937,-2.3495 -6.2865,-6.35 -2.286,-4.0005 -2.286,-9.017 0,-5.0165 2.0955,-8.9535 2.159,-4.0005 5.842,-6.2865 3.683,-2.3495 8.3185,-2.3495 3.7465,0 6.9215,1.5875 3.175,1.524 5.334,4.191 v -17.145 q 0,-1.4605 0.889,-2.3495 0.9525,-0.889 2.3495,-0.889 1.4605,0 2.3495,0.889 0.889,0.889 0.889,2.3495 v 28.956 q 0,5.0165 -2.3495,9.017 -2.286,4.0005 -6.223,6.35 -3.937,2.286 -8.89,2.286 z m 0,-5.715 q 3.2385,0 5.7785,-1.524 2.54,-1.5875 4.0005,-4.318 1.4605,-2.7305 1.4605,-6.096 0,-3.429 -1.4605,-6.096 -1.4605,-2.667 -4.0005,-4.191 -2.54,-1.5875 -5.7785,-1.5875 -3.175,0 -5.7785,1.5875 -2.54,1.524 -4.064,4.191 -1.4605,2.667 -1.4605,6.096 0,3.3655 1.4605,6.096 1.524,2.7305 4.064,4.318 2.6035,1.524 5.7785,1.524 z"
         id="path1227"
         style="stroke:#2e303e;stroke-opacity:0.99635035;stroke-width:1.5;stroke-dasharray:none" />
    </g>
  </g>
</svg>
