<?xml version="1.0" encoding="UTF-8" standalone="no"?>
<!DOCTYPE svg PUBLIC "-//W3C//DTD SVG 1.1//EN" "http://www.w3.org/Graphics/SVG/1.1/DTD/svg11.dtd">
<!-- Generated by graphviz version 2.40.1 (20161225.0304)
 -->
<!-- Title: G Pages: 1 -->
<svg width="162pt" height="277pt" viewBox="0.00 0.00 162.00 277.40" xmlns="http://www.w3.org/2000/svg" xmlns:xlink="http://www.w3.org/1999/xlink">
<g id="graph0" class="graph" transform="scale(1 1) rotate(0) translate(4 273.4)">
<title>G</title>
<polygon fill="#ffffff" stroke="transparent" points="-4,4 -4,-273.4 158,-273.4 158,4 -4,4"/>
<g id="clust1" class="cluster">
<title>cluster_required</title>
<polygon fill="#d3d3d3" stroke="#d3d3d3" points="8,-65 8,-261.4 146,-261.4 146,-65 8,-65"/>
<text text-anchor="middle" x="77" y="-244.8" font-family="Times,serif" font-size="14.00" fill="#000000">Required components</text>
</g>
<!-- engine -->
<g id="node1" class="node">
<title>engine</title>
<polygon fill="#ffffff" stroke="#ffffff" points="104,-228.6 50,-228.6 50,-192.6 104,-192.6 104,-228.6"/>
<text text-anchor="middle" x="77" y="-206.4" font-family="Times,serif" font-size="14.00" fill="#000000">engine</text>
</g>
<!-- client -->
<g id="node2" class="node">
<title>client</title>
<polygon fill="#ffffff" stroke="#ffffff" points="77,-109 31.106,-91 77,-73 122.894,-91 77,-109"/>
<text text-anchor="middle" x="77" y="-86.8" font-family="Times,serif" font-size="14.00" fill="#000000">client</text>
</g>
<!-- engine&#45;&gt;client -->
<g id="edge2" class="edge">
<title>engine-&gt;client</title>
<path fill="none" stroke="#000000" d="M61.1512,-192.1113C53.557,-182.0292 45.2719,-168.9139 41.3328,-155.6 36.622,-139.6778 45.8237,-123.3193 56.0579,-111.0476"/>
<polygon fill="#000000" stroke="#000000" points="58.67,-113.3774 62.7965,-103.6191 53.4854,-108.6742 58.67,-113.3774"/>
<text text-anchor="middle" x="76.3336" y="-148.4" font-family="Times,serif" font-size="8.00" fill="#000000">tcp://127.0.0.1:xxxxx</text>
</g>
<!-- client&#45;&gt;engine -->
<g id="edge1" class="edge">
<title>client-&gt;engine</title>
<path fill="none" stroke="#000000" stroke-dasharray="5,2" d="M91.7348,-103.5654C104.4679,-116.0382 119.9585,-136.0678 114,-155.6 110.9275,-165.6718 105.3246,-175.5701 99.3926,-184.1322"/>
<polygon fill="#000000" stroke="#000000" points="96.5558,-182.0819 93.4325,-192.206 102.1875,-186.2394 96.5558,-182.0819"/>
</g>
<!-- parser -->
<g id="node3" class="node">
<title>parser</title>
<ellipse fill="none" stroke="#000000" cx="77" cy="-18" rx="34.7476" ry="18"/>
<text text-anchor="middle" x="77" y="-13.8" font-family="Times,serif" font-size="14.00" fill="#000000">parser</text>
</g>
<!-- client&#45;&gt;parser -->
<g id="edge3" class="edge">
<title>client-&gt;parser</title>
<path fill="none" stroke="#000000" stroke-dasharray="1,5" d="M77,-62.8688C77,-57.3894 77,-51.6439 77,-46.1634"/>
<polygon fill="#000000" stroke="#000000" points="73.5001,-62.955 77,-72.9551 80.5001,-62.9551 73.5001,-62.955"/>
<polygon fill="#000000" stroke="#000000" points="80.5001,-46.0903 77,-36.0904 73.5001,-46.0904 80.5001,-46.0903"/>
</g>
</g>
</svg>